<svg xmlns="http://www.w3.org/2000/svg" width="1346" height="1710" viewBox="0 0 1346 1710" role="img" aria-labelledby="title desc">
  <title id="title">KTX ingestion flow</title>
  <desc id="desc">Source systems flow through source connectors, context builder, reconciliation, and validation to create wiki Markdown and semantic-layer YAML outputs.</desc>
  <defs>
    <filter id="card-shadow" x="-12%" y="-12%" width="124%" height="124%" color-interpolation-filters="sRGB">
      <feDropShadow dx="0" dy="2" stdDeviation="2" flood-color="#0f172a" flood-opacity="0.14"/>
    </filter>
    <filter id="dark-shadow" x="-12%" y="-12%" width="124%" height="124%" color-interpolation-filters="sRGB">
      <feDropShadow dx="0" dy="2" stdDeviation="2" flood-color="#020617" flood-opacity="0.22"/>
    </filter>
    <filter id="glow-blue" x="-160%" y="-160%" width="420%" height="420%">
      <feGaussianBlur stdDeviation="7" result="blur"/>
      <feMerge>
        <feMergeNode in="blur"/>
        <feMergeNode in="SourceGraphic"/>
      </feMerge>
    </filter>
    <marker id="arrow" viewBox="0 0 10 10" refX="8.5" refY="5" markerWidth="9" markerHeight="9" orient="auto-start-reverse">
      <path d="M 0 0 L 10 5 L 0 10 z" fill="#94a3b8"/>
    </marker>
    <style>
      .card { fill: #ffffff; stroke: #e2e8f0; stroke-width: 1.4; filter: url(#card-shadow); }
      .stage { fill: #0b1f23; stroke: #17343a; stroke-width: 1.2; filter: url(#dark-shadow); }
      .title { fill: #24272d; font: 700 28px Inter, Arial, sans-serif; }
      .body { fill: #666b73; font: 500 18px Inter, Arial, sans-serif; }
      .tag { fill: #6b7280; font: 500 16px Inter, Arial, sans-serif; }
      .mono { font: 700 20px "SFMono-Regular", Consolas, monospace; }
      .stage-title { fill: #f8fafc; font: 700 28px Inter, Arial, sans-serif; }
      .stage-body { fill: #b8c6ca; font: 500 20px Inter, Arial, sans-serif; }
      .index { fill: #07313a; font: 700 22px Inter, Arial, sans-serif; text-anchor: middle; dominant-baseline: middle; }
      .edge { fill: none; stroke: #94a3b8; stroke-width: 2; stroke-linecap: round; stroke-linejoin: round; }
      .dash { fill: none; stroke: #64748b; stroke-width: 1.8; stroke-dasharray: 5 8; stroke-linecap: round; }
    </style>
  </defs>

  <g id="source-cards">
    <g transform="translate(24 39)">
      <rect class="card" x="0" y="0" width="298" height="285" rx="4"/>
      <rect x="0" y="0" width="298" height="4" rx="2" fill="#3b82f6"/>
      <text class="title" x="22" y="52">Databases</text>
      <text class="body" x="22" y="92">Schemas, columns, keys,</text>
      <text class="body" x="22" y="120">row counts, and query</text>
      <text class="body" x="22" y="148">history.</text>
      <g transform="translate(22 180)">
        <rect x="0" y="0" width="112" height="36" rx="4" fill="#fbfaf8" stroke="#e5e1dc"/>
        <text class="tag" x="12" y="24">PostgreSQL</text>
        <rect x="120" y="0" width="100" height="36" rx="4" fill="#fbfaf8" stroke="#e5e1dc"/>
        <text class="tag" x="132" y="24">Snowflake</text>
        <rect x="0" y="46" width="92" height="36" rx="4" fill="#fbfaf8" stroke="#e5e1dc"/>
        <text class="tag" x="12" y="70">BigQuery</text>
        <rect x="100" y="46" width="74" height="36" rx="4" fill="#fbfaf8" stroke="#e5e1dc"/>
        <text class="tag" x="112" y="70">SQLite</text>
      </g>
    </g>

    <g transform="translate(358 39)">
      <rect class="card" x="0" y="0" width="298" height="285" rx="4"/>
      <rect x="0" y="0" width="298" height="4" rx="2" fill="#f97316"/>
      <text class="title" x="22" y="52">BI tools</text>
      <text class="body" x="22" y="92">Dashboards, questions,</text>
      <text class="body" x="22" y="120">explores, usage, and trusted</text>
      <text class="body" x="22" y="148">examples.</text>
      <g transform="translate(22 180)">
        <rect x="0" y="0" width="96" height="36" rx="4" fill="#fbfaf8" stroke="#e5e1dc"/>
        <text class="tag" x="12" y="24">Metabase</text>
        <rect x="104" y="0" width="74" height="36" rx="4" fill="#fbfaf8" stroke="#e5e1dc"/>
        <text class="tag" x="116" y="24">Looker</text>
      </g>
    </g>

    <g transform="translate(692 39)">
      <rect class="card" x="0" y="0" width="298" height="285" rx="4"/>
      <rect x="0" y="0" width="298" height="4" rx="2" fill="#f59e0b"/>
      <text class="title" x="22" y="52">Modeling code</text>
      <text class="body" x="22" y="92">Existing metrics, dimensions,</text>
      <text class="body" x="22" y="120">models, joins, and entities.</text>
      <g transform="translate(22 152)">
        <rect x="0" y="0" width="48" height="36" rx="4" fill="#fbfaf8" stroke="#e5e1dc"/>
        <text class="tag" x="12" y="24">dbt</text>
        <rect x="56" y="0" width="82" height="36" rx="4" fill="#fbfaf8" stroke="#e5e1dc"/>
        <text class="tag" x="68" y="24">LookML</text>
        <rect x="0" y="46" width="102" height="36" rx="4" fill="#fbfaf8" stroke="#e5e1dc"/>
        <text class="tag" x="12" y="70">MetricFlow</text>
      </g>
    </g>

    <g transform="translate(1026 39)">
      <rect class="card" x="0" y="0" width="298" height="285" rx="4"/>
      <rect x="0" y="0" width="298" height="4" rx="2" fill="#10b981"/>
      <text class="title" x="22" y="52">Docs and notes</text>
      <text class="body" x="22" y="92">Policies, caveats, team</text>
      <text class="body" x="22" y="120">definitions, and analyst</text>
      <text class="body" x="22" y="148">context.</text>
      <g transform="translate(22 180)">
        <rect x="0" y="0" width="72" height="36" rx="4" fill="#fbfaf8" stroke="#e5e1dc"/>
        <text class="tag" x="12" y="24">Notion</text>
        <rect x="80" y="0" width="84" height="36" rx="4" fill="#fbfaf8" stroke="#e5e1dc"/>
        <text class="tag" x="92" y="24">Any text</text>
      </g>
    </g>
  </g>

  <g id="edges">
    <path class="edge" d="M172 324 V380 Q172 394 186 394 H507 Q507 394 507 380 V324"/>
    <path class="edge" d="M841 324 V380 Q841 394 827 394 H507"/>
    <path class="edge" d="M1175 324 V380 Q1175 394 1161 394 H673 Q673 394 673 408 V433" marker-end="url(#arrow)"/>
    <path class="edge" d="M507 394 H673"/>
    <path class="edge" d="M673 618 V651" marker-end="url(#arrow)"/>
    <path class="edge" d="M673 833 V866" marker-end="url(#arrow)"/>
    <path class="edge" d="M673 1048 V1081" marker-end="url(#arrow)"/>
    <path class="edge" d="M673 1262 V1310 Q673 1325 656 1325 H305 Q291 1325 291 1339 V1364" marker-end="url(#arrow)"/>
    <path class="edge" d="M673 1262 V1310 Q673 1325 690 1325 H1043 Q1057 1325 1057 1339 V1364" marker-end="url(#arrow)"/>
    <path class="dash" d="M546 1523 H800"/>
    <path d="M546 1523 l9 -6 v12 z" fill="#64748b"/>
    <path d="M800 1523 l-9 -6 v12 z" fill="#64748b"/>
  </g>

  <g id="particles">
    <circle cx="256" cy="394" r="18" fill="#3b82f6" opacity="0.18" filter="url(#glow-blue)"/>
    <circle cx="256" cy="394" r="6" fill="#3b82f6" opacity="0.9"/>
    <circle cx="632" cy="394" r="18" fill="#f97316" opacity="0.18" filter="url(#glow-blue)"/>
    <circle cx="632" cy="394" r="6" fill="#f97316" opacity="0.9"/>
    <circle cx="830" cy="394" r="18" fill="#10b981" opacity="0.18" filter="url(#glow-blue)"/>
    <circle cx="830" cy="394" r="6" fill="#10b981" opacity="0.9"/>
    <circle cx="673" cy="635" r="17" fill="#10b981" opacity="0.18" filter="url(#glow-blue)"/>
    <circle cx="673" cy="635" r="6" fill="#10b981" opacity="0.9"/>
    <circle cx="673" cy="1065" r="17" fill="#f59e0b" opacity="0.18" filter="url(#glow-blue)"/>
    <circle cx="673" cy="1065" r="6" fill="#f59e0b" opacity="0.9"/>
    <circle cx="573" cy="1322" r="17" fill="#3b82f6" opacity="0.18" filter="url(#glow-blue)"/>
    <circle cx="573" cy="1322" r="6" fill="#3b82f6" opacity="0.9"/>
  </g>

  <g id="stages">
    <g transform="translate(464 438)">
      <rect class="stage" x="0" y="0" width="420" height="180" rx="4"/>
      <circle cx="52" cy="90" r="26" fill="#55dced"/>
      <text class="index" x="52" y="90">1</text>
      <text class="stage-title" x="98" y="72">Source connectors</text>
      <text class="stage-body" x="98" y="110">Read each configured system in</text>
      <text class="stage-body" x="98" y="140">its native shape.</text>
    </g>

    <g transform="translate(464 653)">
      <rect class="stage" x="0" y="0" width="420" height="180" rx="4"/>
      <circle cx="52" cy="90" r="26" fill="#55dced"/>
      <text class="index" x="52" y="90">2</text>
      <text class="stage-title" x="98" y="72">Context builder</text>
      <text class="stage-body" x="98" y="110">Turn source evidence into</text>
      <text class="stage-body" x="98" y="140">proposed context updates.</text>
    </g>

    <g transform="translate(464 868)">
      <rect class="stage" x="0" y="0" width="420" height="180" rx="4"/>
      <circle cx="52" cy="90" r="26" fill="#55dced"/>
      <text class="index" x="52" y="90">3</text>
      <text class="stage-title" x="98" y="72">Reconciliation</text>
      <text class="stage-body" x="98" y="110">Merge new evidence with the</text>
      <text class="stage-body" x="98" y="140">context that already exists.</text>
    </g>

    <g transform="translate(464 1082)">
      <rect class="stage" x="0" y="0" width="420" height="180" rx="4"/>
      <circle cx="52" cy="90" r="26" fill="#55dced"/>
      <text class="index" x="52" y="90">4</text>
      <text class="stage-title" x="98" y="72">Validation</text>
      <text class="stage-body" x="98" y="110">Check references and semantics</text>
      <text class="stage-body" x="98" y="140">before agents rely on them.</text>
    </g>
  </g>

  <g id="outputs">
    <g transform="translate(60 1373)">
      <rect class="card" x="0" y="0" width="485" height="329" rx="4"/>
      <rect x="0" y="0" width="485" height="4" rx="2" fill="#10b981"/>
      <text class="mono" x="24" y="52" fill="#10b981">wiki/*.md</text>
      <text class="title" x="24" y="100">Wiki</text>
      <g transform="translate(24 122)">
        <rect x="0" y="0" width="90" height="36" rx="4" fill="#fbfaf8" stroke="#e5e1dc"/>
        <text class="tag" x="12" y="24">free-form</text>
        <rect x="98" y="0" width="140" height="36" rx="4" fill="#fbfaf8" stroke="#e5e1dc"/>
        <text class="tag" x="110" y="24">auto-maintained</text>
      </g>
      <text class="body" x="24" y="194">Definitions, caveats, policies, analyst notes, and</text>
      <text class="body" x="24" y="222">business language that agents can search.</text>
    </g>

    <g transform="translate(803 1373)">
      <rect class="card" x="0" y="0" width="485" height="329" rx="4"/>
      <rect x="0" y="0" width="485" height="4" rx="2" fill="#3b82f6"/>
      <text class="mono" x="24" y="52" fill="#3b82f6">semantic-layer/*.yaml</text>
      <text class="title" x="24" y="100">Semantic layer</text>
      <g transform="translate(24 122)">
        <rect x="0" y="0" width="96" height="36" rx="4" fill="#fbfaf8" stroke="#e5e1dc"/>
        <text class="tag" x="12" y="24">structured</text>
        <rect x="104" y="0" width="104" height="36" rx="4" fill="#fbfaf8" stroke="#e5e1dc"/>
        <text class="tag" x="116" y="24">executable</text>
        <rect x="216" y="0" width="140" height="36" rx="4" fill="#fbfaf8" stroke="#e5e1dc"/>
        <text class="tag" x="228" y="24">auto-maintained</text>
      </g>
      <text class="body" x="24" y="194">Metrics, joins, tables, dimensions, filters, and</text>
      <text class="body" x="24" y="222">segments that KTX can validate and compile into</text>
      <text class="body" x="24" y="250">SQL.</text>
    </g>

    <g transform="translate(622 1505)">
      <rect x="0" y="0" width="102" height="36" rx="4" fill="#ffffff" stroke="#e5e1dc"/>
      <text class="tag" x="13" y="24">references</text>
    </g>
  </g>
</svg>
